{"title":"Jolene.2008.DVDRiP.XViD.AC3.Optional.NORDIC.Zen_Bud","uid":5811774,"size":1486491967,"categoryP":"video","categoryS":"movies","magnet":"?xt=urn:btih:b58c132cfc1046381d80cb0dc53662d282d6e42e&amp;dn=Jolene.2008.DVDRiP.XViD.AC3.Optional.NORDIC.Zen_Bud&amp;tr=udp%3A%2F%2Ftracker.openbittorrent.com%3A80&amp;tr=udp%3A%2F%2Fopen.demonii.com%3A1337&amp;tr=udp%3A%2F%2Ftracker.coppersurfer.tk%3A6969&amp;tr=udp%3A%2F%2Fexodus.desync.com%3A6969","seeders":0,"leechers":0,"uploader":"Zen_Bud","files":-1,"time":1283670394,"description":"\nComplete name                    : Jolene.2008.avi\nFormat                           : AVI\nFile size                        : 1.37 GiB\nDuration                         : 1h 55mn\nOverall bit rate                 : 1 693 Kbps\n\nVideo\n\nFormat                           : MPEG-4 Visual\nCodec ID/Hint                    : XviD\nDuration                         : 1h 55mn\nBit rate                         : 1 234 Kbps\nWidth                            : 720 pixels\nHeight                           : 436 pixels\nDisplay aspect ratio             : 2.35:1\nStream size                      : 1 023 MiB (73%)\nWriting library                  : XviD 1.1.2 (UTC 2006-11-01)\n\nAudio\n\nFormat                           : AC-3\nDuration                         : 1h 55mn\nBit rate                         : 448 Kbps\nChannel(s)                       : 6 channels\nChannel positions                : Front: L C R, Side: L R, LFE\nSampling rate                    : 48.0 KHz\nBit depth                        : 16 bits\nStream size                      : 371 MiB (26%)\n\n\nText #1\nLanguage                         : Swedish\n\nText #2\nLanguage                         : Norwegian\n\nText #3\nLanguage                         : Danish\n\nText #4\nLanguage                         : Finnish","torrent":{"xt":"urn:btih:b58c132cfc1046381d80cb0dc53662d282d6e42e","amp;dn":"Jolene.2008.DVDRiP.XViD.AC3.Optional.NORDIC.Zen_Bud","amp;tr":["udp%3A%2F%2Ftracker.openbittorrent.com%3A80","udp%3A%2F%2Fopen.demonii.com%3A1337","udp%3A%2F%2Ftracker.coppersurfer.tk%3A6969","udp%3A%2F%2Fexodus.desync.com%3A6969"],"infoHash":"b58c132cfc1046381d80cb0dc53662d282d6e42e","infoHashBuffer":{"type":"Buffer","data":[181,140,19,44,252,16,70,56,29,128,203,13,197,54,98,210,130,214,228,46]},"announce":[],"urlList":[]}}